<?xml version="1.0" encoding="utf-8"?>
<!-- Generator: Adobe Illustrator 24.2.3, SVG Export Plug-In . SVG Version: 6.00 Build 0)  -->
<svg version="1.1" id="Layer_1" xmlns="http://www.w3.org/2000/svg" xmlns:xlink="http://www.w3.org/1999/xlink" x="0px" y="0px"
	 viewBox="0 0 516 313" style="enable-background:new 0 0 516 313;" xml:space="preserve">
<style type="text/css">
	.st0{fill:#4ECDC4;}
	.st1{fill:url(#SVGID_1_);}
	.st2{fill:url(#SVGID_2_);}
	.st3{fill:#F7FFF7;}
	.st4{fill:url(#SVGID_3_);}
</style>
<g>
	<g>
		<g>
			<path class="st0" d="M6,67l233.1,239.2c8.8,9,23.2,9.2,32.2,0.4l14.9-14.6c9-8.8,9.2-23.2,0.4-32.2L53.6,20.7
				c-8.8-9-23.2-9.2-32.2-0.4l-15,14.5C-2.6,43.6-2.8,58,6,67z"/>
			
				<linearGradient id="SVGID_1_" gradientUnits="userSpaceOnUse" x1="218.8085" y1="147.65" x2="516.4916" y2="147.65" gradientTransform="matrix(1 0 0 -1 0 314)">
				<stop  offset="0" style="stop-color:#4ECDC4"/>
				<stop  offset="1" style="stop-color:#F7FFF7"/>
			</linearGradient>
			<path class="st1" d="M274.7,303.3L507,76.9c10.9-10.6,12.7-26.6,3.9-35.6l-14.6-14.9c-8.8-9-24.7-7.7-35.7,3L228.3,255.8
				c-10.9,10.6-12.7,26.6-3.9,35.6l14.6,14.9C247.8,315.3,263.8,314,274.7,303.3z"/>
		</g>
		<g>
			<g>
				<g>
					<path class="st0" d="M224,1.7l-73.4,71.5c-2.8,2.7-1.3,8.6,3.2,13.3l7.5,7.7c4.5,4.6,10.4,6.2,13.2,3.5l73.4-71.5
						c2.8-2.7,1.3-8.6-3.2-13.3l-7.5-7.7C232.7,0.6,226.8-1,224,1.7z"/>
					
						<linearGradient id="SVGID_2_" gradientUnits="userSpaceOnUse" x1="-238.2159" y1="944.8529" x2="-155.7521" y2="862.3891" gradientTransform="matrix(-1.3294 0.321 -0.321 1.3128 226.3918 -1014.8419)">
						<stop  offset="0" style="stop-color:#F7FFF7"/>
						<stop  offset="0.5411" style="stop-color:#4CC3BB"/>
						<stop  offset="0.6986" style="stop-color:#4DCBC2"/>
						<stop  offset="1" style="stop-color:#4ECDC4"/>
					</linearGradient>
					<path class="st2" d="M151.5,84.2l69.5,71.3c3.3,3.4,9.6,2.5,14.1-1.9l7.5-7.3c4.5-4.4,5.6-10.7,2.3-14.1l-69.5-71.3
						c-3.3-3.4-9.6-2.5-14.1,1.9l-7.5,7.3C149.3,74.5,148.3,80.8,151.5,84.2z"/>
				</g>
			</g>
			<g>
				<path class="st3" d="M292,157.6l73.4-71.5c2.8-2.7,1.3-8.6-3.2-13.3l-7.5-7.7c-4.5-4.6-10.4-6.2-13.2-3.5l-73.4,71.5
					c-2.8,2.7-1.3,8.6,3.2,13.3l7.5,7.7C283.3,158.7,289.2,160.3,292,157.6z"/>
				
					<linearGradient id="SVGID_3_" gradientUnits="userSpaceOnUse" x1="305.7476" y1="332.4611" x2="388.2112" y2="249.9975" gradientTransform="matrix(1.3294 -0.321 0.321 -1.3128 -236.9591 544.9061)">
					<stop  offset="0" style="stop-color:#4ECDC4"/>
					<stop  offset="4.785120e-03" style="stop-color:#4FCDC4"/>
					<stop  offset="0.1878" style="stop-color:#82DCD4"/>
					<stop  offset="0.3684" style="stop-color:#ACE9E0"/>
					<stop  offset="0.5429" style="stop-color:#CDF2EA"/>
					<stop  offset="0.7098" style="stop-color:#E4F9F1"/>
					<stop  offset="0.8658" style="stop-color:#F2FEF6"/>
					<stop  offset="1" style="stop-color:#F7FFF7"/>
				</linearGradient>
				<path class="st4" d="M364.5,75.2L295,3.9c-3.3-3.4-9.6-2.5-14.1,1.9l-7.5,7.3c-4.5,4.4-5.6,10.7-2.3,14.1l69.5,71.3
					c3.3,3.4,9.6,2.5,14.1-1.9l7.5-7.3C366.7,84.8,367.7,78.5,364.5,75.2z"/>
			</g>
		</g>
	</g>
</g>
</svg>
